<?xml version="1.0" encoding="utf-8"?>
<!-- Generator: Adobe Illustrator 23.0.3, SVG Export Plug-In . SVG Version: 6.00 Build 0)  -->
<svg version="1.1" id="Layer_1" xmlns="http://www.w3.org/2000/svg" xmlns:xlink="http://www.w3.org/1999/xlink" x="0px" y="0px"
	 viewBox="0 0 540 95" style="enable-background:new 0 0 540 95;" xml:space="preserve">
<style type="text/css">
	.st0{fill:#1B75BC;}
	.st1{fill:#414042;}
</style>
<g>
	<g>
		<path class="st0" d="M8.81,24.11v61.28c0,1.66,1.34,3,3,3H73.1c1.66,0,3-1.34,3-3V54.75V24.11c0-1.66-1.34-3-3-3H11.82
			C10.16,21.1,8.81,22.45,8.81,24.11z M59.38,74.67H25.54c-1.66,0-3-1.34-3-3V37.83c0-1.66,1.34-3,3-3h33.84c1.66,0,3,1.34,3,3
			v33.84C62.38,73.32,61.04,74.67,59.38,74.67z"/>
	</g>
	<path class="st0" d="M77.34,55.81l35.23,30.51c0.91,0.79,2.34,0.14,2.34-1.07V24.23c0-1.21-1.42-1.86-2.34-1.07L77.34,53.68
		C76.69,54.24,76.69,55.25,77.34,55.81z"/>
</g>
<g>
	<path class="st1" d="M209.74,54.82c0,20.51-14.78,35-35.57,35c-20.8,0-35.58-14.49-35.58-35c0-20.51,14.78-35,35.58-35
		C194.97,19.82,209.74,34.31,209.74,54.82z M150.93,54.82c0,14.2,9.47,24.1,23.24,24.1c13.63,0,23.24-9.9,23.24-24.1
		c0-14.2-9.61-24.1-23.24-24.1C160.39,30.72,150.93,40.62,150.93,54.82z"/>
	<path class="st1" d="M235.89,88.39h-10.85c-0.37,0-0.67-0.3-0.67-0.67V6.52c0-0.37,0.3-0.67,0.67-0.67h10.85
		c0.37,0,0.67,0.3,0.67,0.67v42.4c0,0.6,0.72,0.9,1.14,0.48l28.78-27.96c0.13-0.12,0.29-0.19,0.47-0.19h13.97
		c0.61,0,0.91,0.74,0.47,1.16l-32.7,31.2c-0.28,0.27-0.28,0.71,0,0.97l34.14,32.64c0.44,0.42,0.14,1.16-0.47,1.16h-14.69
		c-0.18,0-0.34-0.07-0.47-0.19l-29.5-28.68c-0.43-0.42-1.14-0.11-1.14,0.48v27.71C236.56,88.09,236.26,88.39,235.89,88.39z"/>
	<path class="st1" d="M296.04,21.26h10.85c0.37,0,0.67,0.23,0.67,0.52v66.33c0,0.29-0.3,0.52-0.67,0.52h-10.85
		c-0.37,0-0.67-0.23-0.67-0.52V21.78C295.37,21.49,295.67,21.26,296.04,21.26z"/>
	<path class="st1" d="M388.9,49.37v38.34c0,0.37-0.3,0.67-0.67,0.67h-10.84c-0.37,0-0.67-0.3-0.67-0.67V50.81
		c0-12.62-6.89-20.08-18.22-20.08c-12.48,0-19.94,8.61-19.94,22.81v34.18c0,0.37-0.3,0.67-0.67,0.67h-10.85
		c-0.37,0-0.67-0.3-0.67-0.67V21.93c0-0.37,0.3-0.67,0.67-0.67h9c0.37,0,0.66,0.29,0.67,0.66l0.27,9.96h0.29
		c4.59-7.6,12.77-12.05,24.1-12.05C378.43,19.82,388.9,31.01,388.9,49.37z"/>
	<path class="st1" d="M462.7,88.39c-0.36,0-0.66-0.29-0.67-0.65l-0.41-9.97h-0.29c-5.02,7.46-14.2,12.05-25.97,12.05
		c-19.51,0-33.57-14.63-33.57-35c0-20.37,14.06-35,33.57-35c11.76,0,20.94,4.59,25.97,12.19h0.29l0.41-10.11
		c0.01-0.36,0.31-0.65,0.67-0.65h9.01c0.37,0,0.67,0.3,0.67,0.67v65.79c0,0.37-0.3,0.67-0.67,0.67H462.7z M460.62,54.82
		c0-14.2-9.61-24.1-23.24-24.1c-13.77,0-23.24,9.9-23.24,24.1c0,14.2,9.47,24.1,23.24,24.1C451.01,78.92,460.62,69.03,460.62,54.82z
		"/>
	<path class="st1" d="M533.3,22.21c0.21,0.12,0.33,0.35,0.33,0.59v11.8h-0.57c-2.87-2.01-6.46-3.16-10.47-3.16
		c-12.91,0-19.08,8.9-19.08,26.4v29.88c0,0.37-0.3,0.67-0.67,0.67h-10.85c-0.37,0-0.67-0.3-0.67-0.67V21.93
		c0-0.37,0.3-0.67,0.67-0.67h9c0.37,0,0.66,0.29,0.67,0.66l0.27,10.1h0.29c4.02-8.03,11.04-12.19,21.23-12.19
		C527.69,19.82,531.01,20.87,533.3,22.21z"/>
</g>
<path class="st1" d="M301.61,16.19l5.81-10.06c0.06-0.11-0.02-0.25-0.14-0.25h-11.62c-0.13,0-0.21,0.14-0.14,0.25l5.81,10.06
	C301.39,16.3,301.55,16.3,301.61,16.19z"/>
</svg>
